<svg width="40" height="40" viewBox="0 0 40 40" fill="none" xmlns="http://www.w3.org/2000/svg">
<circle cx="20" cy="20" r="20" fill="#52B3F9"/>
<path d="M20 14C19.45 14 18.9792 13.8042 18.5875 13.4125C18.1958 13.0208 18 12.55 18 12C18 11.45 18.1958 10.9792 18.5875 10.5875C18.9792 10.1958 19.45 10 20 10C20.55 10 21.0208 10.1958 21.4125 10.5875C21.8042 10.9792 22 11.45 22 12C22 12.55 21.8042 13.0208 21.4125 13.4125C21.0208 13.8042 20.55 14 20 14ZM17 30V17H11V15H29V17H23V30H21V24H19V30H17Z" fill="white"/>
</svg>
