<svg width="17" height="17" viewBox="0 0 17 17" fill="none" xmlns="http://www.w3.org/2000/svg">
<path fill-rule="evenodd" clip-rule="evenodd" d="M0 2.125V14.875H17V2.125H0Z" fill="#009933"/>
<mask id="mask0_142_10" style="mask-type:luminance" maskUnits="userSpaceOnUse" x="0" y="2" width="17" height="13">
<path fill-rule="evenodd" clip-rule="evenodd" d="M0 2.125V14.875H17V2.125H0Z" fill="white"/>
</mask>
<g mask="url(#mask0_142_10)">
<g filter="url(#filter0_d_142_10)">
<path fill-rule="evenodd" clip-rule="evenodd" d="M8.46112 4.09277L14.9434 8.61052L8.37241 12.8403L2.02344 8.52287L8.46112 4.09277Z" fill="#FFD221"/>
<path fill-rule="evenodd" clip-rule="evenodd" d="M8.46112 4.09277L14.9434 8.61052L8.37241 12.8403L2.02344 8.52287L8.46112 4.09277Z" fill="url(#paint0_linear_142_10)"/>
</g>
<path fill-rule="evenodd" clip-rule="evenodd" d="M8.5 11.2625C9.20448 11.2625 9.88011 10.9827 10.3783 10.4845C10.8764 9.98637 11.1562 9.31074 11.1562 8.60626C11.1562 7.90178 10.8764 7.22615 10.3783 6.72801C9.88011 6.22987 9.20448 5.95001 8.5 5.95001C7.79552 5.95001 7.11989 6.22987 6.62175 6.72801C6.1236 7.22615 5.84375 7.90178 5.84375 8.60626C5.84375 9.31074 6.1236 9.98637 6.62175 10.4845C7.11989 10.9827 7.79552 11.2625 8.5 11.2625Z" fill="#2E42A5"/>
<mask id="mask1_142_10" style="mask-type:luminance" maskUnits="userSpaceOnUse" x="5" y="5" width="7" height="7">
<path fill-rule="evenodd" clip-rule="evenodd" d="M8.5 11.2625C9.20448 11.2625 9.88011 10.9827 10.3783 10.4845C10.8764 9.98637 11.1562 9.31074 11.1562 8.60626C11.1562 7.90178 10.8764 7.22615 10.3783 6.72801C9.88011 6.22987 9.20448 5.95001 8.5 5.95001C7.79552 5.95001 7.11989 6.22987 6.62175 6.72801C6.1236 7.22615 5.84375 7.90178 5.84375 8.60626C5.84375 9.31074 6.1236 9.98637 6.62175 10.4845C7.11989 10.9827 7.79552 11.2625 8.5 11.2625Z" fill="white"/>
</mask>
<g mask="url(#mask1_142_10)">
<path fill-rule="evenodd" clip-rule="evenodd" d="M7.63949 9.86528L7.52102 9.92743L7.54333 9.79568L7.44771 9.70218L7.58052 9.68253L7.63949 9.56246L7.69899 9.68253L7.8318 9.70218L7.73564 9.79568L7.75795 9.92743L7.63949 9.86528ZM8.70199 9.86528L8.58352 9.92743L8.60583 9.79568L8.5102 9.70218L8.64302 9.68253L8.70199 9.56246L8.76149 9.68253L8.8943 9.70218L8.79814 9.79568L8.82046 9.92743L8.70199 9.86528ZM8.70199 10.5028L8.58352 10.5649L8.60583 10.4332L8.5102 10.3392L8.64302 10.32L8.70199 10.2L8.76149 10.32L8.8943 10.3397L8.79814 10.4332L8.82046 10.5649L8.70199 10.5028ZM8.17074 8.27153L8.05227 8.33368L8.07458 8.20193L7.97896 8.10843L8.11177 8.08878L8.17074 7.96871L8.23024 8.08878L8.36305 8.10843L8.26689 8.20193L8.2892 8.33368L8.17074 8.27153ZM8.17074 9.33403L8.05227 9.39618L8.07458 9.26443L7.97896 9.17093L8.11177 9.15128L8.17074 9.03121L8.23024 9.15128L8.36305 9.17093L8.26689 9.26443L8.2892 9.39618L8.17074 9.33403ZM7.42699 8.80278L7.30852 8.86493L7.33083 8.73318L7.23521 8.63968L7.36802 8.62003L7.42699 8.49996L7.48649 8.62003L7.6193 8.63968L7.52314 8.73318L7.54599 8.86493L7.42699 8.80278ZM6.68324 9.22778L6.56477 9.28993L6.58708 9.15818L6.49146 9.06468L6.62427 9.04503L6.68324 8.92496L6.74274 9.04503L6.87555 9.06468L6.77939 9.15818L6.80171 9.28993L6.68324 9.22778ZM9.12699 7.42153L9.00852 7.48368L9.03083 7.35193L8.93521 7.2579L9.06802 7.23878L9.12699 7.11871L9.18649 7.23878L9.3193 7.25843L9.22314 7.35193L9.24546 7.48368L9.12699 7.42153Z" fill="#F7FCFF"/>
<path d="M5.27275 7.96715L5.35244 6.90784C7.90137 7.10015 9.91322 7.93846 11.3625 9.42862L10.6007 10.1697C9.34478 8.87718 7.57678 8.14087 5.27222 7.96715H5.27275Z" fill="#F7FCFF"/>
<path d="M6.52905 7.75785L6.55615 7.49329C8.1993 7.66329 9.60871 8.29282 10.7796 9.38029L10.599 9.57472C9.47058 8.52763 8.11537 7.92254 6.52905 7.75785Z" fill="#009933"/>
</g>
</g>
<defs>
<filter id="filter0_d_142_10" x="2.02344" y="4.09277" width="12.9199" height="8.74756" filterUnits="userSpaceOnUse" color-interpolation-filters="sRGB">
<feFlood flood-opacity="0" result="BackgroundImageFix"/>
<feColorMatrix in="SourceAlpha" type="matrix" values="0 0 0 0 0 0 0 0 0 0 0 0 0 0 0 0 0 0 127 0" result="hardAlpha"/>
<feOffset/>
<feColorMatrix type="matrix" values="0 0 0 0 0.0313726 0 0 0 0 0.368627 0 0 0 0 0 0 0 0 0.28 0"/>
<feBlend mode="normal" in2="BackgroundImageFix" result="effect1_dropShadow_142_10"/>
<feBlend mode="normal" in="SourceGraphic" in2="effect1_dropShadow_142_10" result="shape"/>
</filter>
<linearGradient id="paint0_linear_142_10" x1="16.9999" y1="14.875" x2="16.9999" y2="2.12502" gradientUnits="userSpaceOnUse">
<stop stop-color="#FFC600"/>
<stop offset="1" stop-color="#FFDE42"/>
</linearGradient>
</defs>
</svg>
