<svg width="17" height="17" viewBox="0 0 17 17" fill="none" xmlns="http://www.w3.org/2000/svg">
<path fill-rule="evenodd" clip-rule="evenodd" d="M0 2.125V14.875H17V2.125H0Z" fill="#FFB400"/>
<mask id="mask0_142_27" style="mask-type:luminance" maskUnits="userSpaceOnUse" x="0" y="2" width="17" height="13">
<path fill-rule="evenodd" clip-rule="evenodd" d="M0 2.125V14.875H17V2.125H0Z" fill="white"/>
</mask>
<g mask="url(#mask0_142_27)">
<path fill-rule="evenodd" clip-rule="evenodd" d="M0 2.125V5.3125H17V2.125H0ZM0 11.6875V14.875H17V11.6875H0Z" fill="#C51918"/>
<path d="M2.6604 7.58197H3.2554V10.676H2.6604V7.58197Z" fill="#F1F9FF"/>
<path fill-rule="evenodd" clip-rule="evenodd" d="M3.49361 7.04651H2.42261V7.34401H2.60111V7.58201H3.31511V7.34401H3.49361V7.04651ZM3.31511 10.8545H3.49361V11.152H2.42261V10.8545H2.60111V10.6165H3.31511V10.8545Z" fill="#C88A02"/>
<path fill-rule="evenodd" clip-rule="evenodd" d="M2.958 7.10598C3.0871 7.10598 3.10038 7.0571 3.17688 6.98432C3.23638 6.92801 3.3745 6.85788 3.3745 6.77873C3.3745 6.5981 3.18804 6.45148 2.958 6.45148C2.72797 6.45148 2.5415 6.5981 2.5415 6.77873C2.5415 6.86691 2.6366 6.92588 2.70832 6.98432C2.78429 7.04648 2.84007 7.10598 2.958 7.10598Z" fill="#AD1619"/>
<path fill-rule="evenodd" clip-rule="evenodd" d="M2.42261 11.152H3.49361V11.628C3.49361 11.628 3.35973 11.5685 3.22586 11.5685C3.09198 11.5685 2.95811 11.628 2.95811 11.628C2.95811 11.628 2.82423 11.5685 2.69036 11.5685C2.55648 11.5685 2.42261 11.628 2.42261 11.628V11.152Z" fill="#005BBF"/>
<mask id="mask1_142_27" style="mask-type:luminance" maskUnits="userSpaceOnUse" x="2" y="11" width="2" height="1">
<path fill-rule="evenodd" clip-rule="evenodd" d="M2.42261 11.152H3.49361V11.628C3.49361 11.628 3.35973 11.5685 3.22586 11.5685C3.09198 11.5685 2.95811 11.628 2.95811 11.628C2.95811 11.628 2.82423 11.5685 2.69036 11.5685C2.55648 11.5685 2.42261 11.628 2.42261 11.628V11.152Z" fill="white"/>
</mask>
<g mask="url(#mask1_142_27)">
<path d="M2.41302 11.5345L2.38965 11.4777C2.4858 11.4346 2.58249 11.4128 2.67971 11.4128C2.7424 11.4128 2.77534 11.4219 2.83059 11.4463C2.86996 11.4666 2.91384 11.4764 2.95809 11.475C3.00233 11.4764 3.04622 11.4666 3.08559 11.4463C3.13232 11.4228 3.18417 11.4113 3.23646 11.4128C3.33368 11.4128 3.43037 11.4341 3.52705 11.4777L3.50368 11.5345C3.41982 11.496 3.32874 11.4757 3.23646 11.475C3.19221 11.4736 3.14833 11.4834 3.10896 11.5037C3.06223 11.5272 3.01038 11.5387 2.95809 11.5372C2.9058 11.5387 2.85394 11.5272 2.80721 11.5037C2.76784 11.4834 2.72396 11.4736 2.67971 11.475C2.59099 11.475 2.50227 11.4947 2.41302 11.5345ZM2.41302 11.356L2.38965 11.2992C2.4858 11.2561 2.58249 11.2349 2.67971 11.2349C2.7424 11.2349 2.77534 11.2434 2.83059 11.2683C2.87 11.2884 2.91388 11.2981 2.95809 11.2965C3.00229 11.2981 3.04617 11.2884 3.08559 11.2683C3.13232 11.2448 3.18417 11.2333 3.23646 11.2349C3.33368 11.2349 3.43037 11.2561 3.52705 11.2986L3.50368 11.356C3.41982 11.3175 3.32874 11.2972 3.23646 11.2965C3.19221 11.2951 3.14833 11.3049 3.10896 11.3252C3.06223 11.3487 3.01038 11.3602 2.95809 11.3587C2.9058 11.3602 2.85394 11.3487 2.80721 11.3252C2.76784 11.3049 2.72396 11.2951 2.67971 11.2965C2.59099 11.2965 2.50227 11.3162 2.41302 11.356Z" fill="white"/>
</g>
<path d="M8.49146 7.58197H9.08645V10.676H8.49146V7.58197Z" fill="#F1F9FF"/>
<path fill-rule="evenodd" clip-rule="evenodd" d="M9.32442 7.04651H8.25342V7.34401H8.43192V7.58201H9.14592V7.34401H9.32442V7.04651ZM9.14592 10.8545H9.32442V11.152H8.25342V10.8545H8.43192V10.6165H9.14592V10.8545Z" fill="#C88A02"/>
<path fill-rule="evenodd" clip-rule="evenodd" d="M8.78906 7.10598C8.91868 7.10598 8.93143 7.0571 9.00793 6.98432C9.06743 6.92801 9.20556 6.85788 9.20556 6.77873C9.20556 6.5981 9.01909 6.45148 8.78906 6.45148C8.55903 6.45148 8.37256 6.5981 8.37256 6.77873C8.37256 6.86691 8.46765 6.92588 8.53937 6.98432C8.61534 7.04648 8.67112 7.10598 8.78906 7.10598Z" fill="#AD1619"/>
<path fill-rule="evenodd" clip-rule="evenodd" d="M8.25342 11.152H9.32442V11.628C9.32442 11.628 9.19054 11.5685 9.05667 11.5685C8.92279 11.5685 8.78892 11.628 8.78892 11.628C8.78892 11.628 8.65504 11.5685 8.52117 11.5685C8.38729 11.5685 8.25342 11.628 8.25342 11.628V11.152Z" fill="#005BBF"/>
<mask id="mask2_142_27" style="mask-type:luminance" maskUnits="userSpaceOnUse" x="8" y="11" width="2" height="1">
<path fill-rule="evenodd" clip-rule="evenodd" d="M8.25342 11.152H9.32442V11.628C9.32442 11.628 9.19054 11.5685 9.05667 11.5685C8.92279 11.5685 8.78892 11.628 8.78892 11.628C8.78892 11.628 8.65504 11.5685 8.52117 11.5685C8.38729 11.5685 8.25342 11.628 8.25342 11.628V11.152Z" fill="white"/>
</mask>
<g mask="url(#mask2_142_27)">
<path d="M8.24383 11.5345L8.22046 11.4776C8.31662 11.4346 8.4133 11.4128 8.51052 11.4128C8.57321 11.4128 8.60615 11.4218 8.6614 11.4463C8.70077 11.4665 8.74465 11.4764 8.7889 11.475C8.83314 11.4764 8.87703 11.4665 8.9164 11.4463C8.96329 11.4227 9.01533 11.4112 9.0678 11.4128C9.16449 11.4128 9.26118 11.4341 9.35787 11.4776L9.33449 11.5345C9.25063 11.4959 9.15955 11.4757 9.06727 11.475C9.02302 11.4735 8.97914 11.4834 8.93977 11.5036C8.89304 11.5272 8.84119 11.5387 8.7889 11.5371C8.73661 11.5387 8.68475 11.5272 8.63802 11.5036C8.59865 11.4834 8.55477 11.4735 8.51052 11.475C8.4218 11.475 8.33308 11.4946 8.24383 11.5345ZM8.24383 11.356L8.22046 11.2991C8.31662 11.2561 8.4133 11.2348 8.51052 11.2348C8.57321 11.2348 8.60615 11.2433 8.6614 11.2683C8.70081 11.2884 8.74469 11.2981 8.7889 11.2965C8.8331 11.2981 8.87698 11.2884 8.9164 11.2683C8.96329 11.2447 9.01533 11.2332 9.0678 11.2348C9.16449 11.2348 9.26118 11.2561 9.35787 11.2986L9.33449 11.356C9.25063 11.3174 9.15955 11.2972 9.06727 11.2965C9.02302 11.295 8.97914 11.3049 8.93977 11.3251C8.89304 11.3487 8.84119 11.3602 8.7889 11.3586C8.73661 11.3602 8.68475 11.3487 8.63802 11.3251C8.59864 11.3049 8.55477 11.295 8.51052 11.2965C8.4218 11.2965 8.33308 11.3161 8.24383 11.356Z" fill="white"/>
</g>
<path fill-rule="evenodd" clip-rule="evenodd" d="M8.87508 10.081C8.87508 10.2064 8.93511 10.3254 9.04242 10.455L9.40739 10.1538L9.44245 10.1431L9.46211 9.99066C9.4977 9.7091 9.37711 9.55345 9.13008 9.44082L9.11308 9.43338C9.07908 9.41851 9.0047 9.38557 8.98026 9.37388C8.93258 9.35177 8.88705 9.32527 8.84426 9.29473C8.80117 9.26373 8.75648 9.235 8.71039 9.20866C9.01692 9.15979 9.18267 9.12366 9.30964 9.06841C9.61404 8.9372 9.65283 8.63279 9.36064 8.43198C8.9622 8.15732 7.89545 8.13288 7.42689 8.3746L7.64576 8.79748C7.87526 8.67901 8.39748 8.6567 8.76351 8.71779C8.64165 8.73926 8.51945 8.75874 8.39695 8.77623L8.36667 8.78048C8.22058 8.80332 8.1207 8.83201 8.04686 8.88248C8.01247 8.90417 7.98314 8.93299 7.96084 8.96699C7.93854 9.00099 7.9238 9.03938 7.91761 9.07956C7.91141 9.11974 7.91391 9.16079 7.92494 9.19992C7.93596 9.23906 7.95526 9.27537 7.98151 9.30641C8.02667 9.36432 8.08617 9.40735 8.17595 9.45941C8.20517 9.47588 8.23598 9.49288 8.27795 9.5152L8.2992 9.52688L8.37995 9.56938C8.46601 9.6156 8.52233 9.64907 8.56429 9.67988C8.62964 9.7277 8.69711 9.76648 8.77414 9.80313C8.81505 9.82279 8.93351 9.87432 8.93298 9.87432L8.93989 9.87751C8.89672 9.93647 8.87396 10.0079 8.87508 10.081ZM2.64989 10.455C2.7572 10.3248 2.81723 10.2064 2.81723 10.081C2.81815 10.0079 2.79521 9.93642 2.75189 9.87751L2.75933 9.87432C2.75826 9.87432 2.87673 9.82279 2.91817 9.80313C2.99178 9.76864 3.06203 9.72738 3.12801 9.67988C3.16998 9.64907 3.22629 9.61613 3.31183 9.56991L3.39258 9.52741L3.41383 9.5152C3.44819 9.49727 3.48219 9.47867 3.51583 9.45941C3.60614 9.40735 3.66458 9.36379 3.71026 9.30641C3.73652 9.27537 3.75581 9.23906 3.76684 9.19992C3.77786 9.16079 3.78036 9.11974 3.77417 9.07956C3.76798 9.03938 3.75323 9.00099 3.73094 8.96699C3.70864 8.93299 3.67931 8.90417 3.64492 8.88248C3.57108 8.83201 3.4712 8.80332 3.32511 8.78048L3.29483 8.77623L3.11633 8.74807C3.05355 8.73833 2.99086 8.72806 2.92826 8.71726C3.29429 8.6567 3.81651 8.67901 4.04654 8.79748L4.26436 8.3746C3.79686 8.13288 2.72958 8.15732 2.33114 8.43198C2.03895 8.63332 2.07826 8.9372 2.38214 9.06841C2.50964 9.12313 2.67486 9.15979 2.98139 9.20866C2.93548 9.23502 2.89097 9.26374 2.84804 9.29473C2.80528 9.32545 2.75975 9.35213 2.71204 9.37441C2.66797 9.39434 2.6237 9.41382 2.57923 9.43285L2.56223 9.44082C2.31414 9.55345 2.19408 9.7091 2.2302 9.99066L2.24933 10.1431L2.28439 10.1538L2.64989 10.455Z" fill="#AD1619"/>
<path d="M3.14649 8.71252L3.32181 8.74865V9.01056C3.13534 9.15984 2.6604 9.41165 2.6604 9.41165V8.71252H3.14649ZM8.66724 8.71252L8.4914 8.74865V9.01056C8.6784 9.15984 9.15334 9.41165 9.15334 9.41165V8.71252H8.66724Z" fill="#F1F9FF"/>
<path fill-rule="evenodd" clip-rule="evenodd" d="M7.84966 5.95318V5.86606C7.54366 5.64665 7.22278 5.53668 6.8881 5.53668C6.58299 5.39733 6.2467 5.34037 5.91272 5.37146V5.36987C5.41866 5.32153 4.91981 5.53668 4.91981 5.53668C4.41778 5.53668 3.95825 5.86606 3.95825 5.86606V5.95318L4.55856 6.55615C4.55856 6.55615 4.7275 7.13628 5.9106 6.99975V7.00134C5.9106 7.00134 6.69366 6.98009 6.74891 6.9615L6.81638 6.94078C6.97044 6.89615 7.14522 6.84515 7.24935 6.55615L7.84966 5.95318ZM5.9106 5.39803C5.8936 5.59884 5.79585 6.8085 5.9106 6.99603V5.3975V5.39803Z" fill="#AD1619"/>
<path fill-rule="evenodd" clip-rule="evenodd" d="M4.4164 6.45468L4.41693 6.45256L3.99512 6.05518L4.03549 6.01215L4.4318 6.38456L4.44243 6.33834C4.48786 6.35011 4.53471 6.35548 4.58162 6.35428V6.27353L4.6698 6.32134C4.7123 6.34472 4.77446 6.35109 4.85574 6.33728C4.91577 6.32772 4.95668 6.25812 4.96943 6.11043L4.99599 5.81134L5.08577 6.09822C5.12615 6.22731 5.18777 6.28468 5.27543 6.28468C5.36149 6.28468 5.39602 6.25281 5.39974 6.17365L5.41037 5.94893L5.51237 6.14975C5.54902 6.222 5.59949 6.25493 5.67174 6.25493C5.77427 6.25493 5.8428 6.1694 5.8428 6.035H5.96393C5.96393 6.1694 6.03246 6.25493 6.13499 6.25493C6.20671 6.25493 6.25718 6.22253 6.29437 6.14975L6.39584 5.94893L6.40646 6.17365C6.41071 6.25334 6.44471 6.28468 6.53077 6.28468C6.61843 6.28468 6.68059 6.22731 6.72096 6.09768L6.81021 5.81134L6.83677 6.11043C6.85005 6.25812 6.89043 6.32825 6.95046 6.33781C7.03174 6.35109 7.0939 6.34472 7.1364 6.32134L7.22459 6.27353V6.35428C7.27168 6.35553 7.31871 6.35016 7.36431 6.33834L7.38343 6.42493L7.82171 6.01215L7.86262 6.05572L7.31702 6.5689C7.23734 6.71553 7.19696 6.81222 7.19696 6.85259C7.19696 6.91368 7.03759 6.95034 6.72627 6.98753C6.4819 7.01675 6.19396 7.0364 5.95862 7.03959H5.89912C5.64252 7.03506 5.38632 7.01768 5.13146 6.98753C4.82015 6.95034 4.66024 6.91368 4.66024 6.85259C4.65994 6.8429 4.65851 6.83327 4.65599 6.8239C4.62298 6.77387 4.59989 6.71796 4.58799 6.65922C4.57257 6.62884 4.55663 6.59873 4.54018 6.5689L4.41959 6.45522L4.4164 6.45468ZM7.34146 6.46425C7.24371 6.48125 7.17359 6.47965 7.1364 6.44937C7.06929 6.46634 6.99924 6.46815 6.93134 6.45468C6.8474 6.4414 6.78949 6.38562 6.75443 6.29372C6.71268 6.35002 6.65085 6.38807 6.58177 6.39997C6.96268 6.45309 7.22937 6.52959 7.22937 6.52959C7.22937 6.52959 7.22246 6.5859 7.20652 6.65178C7.22352 6.61725 7.24371 6.579 7.26709 6.5365L7.2724 6.52906L7.34146 6.46425ZM6.40221 6.37712C6.36982 6.36128 6.34256 6.3366 6.32359 6.30593C6.29558 6.3308 6.26263 6.34945 6.2269 6.36065C6.28693 6.3649 6.34537 6.37128 6.40221 6.37712ZM6.01705 6.34897C5.97047 6.3271 5.93105 6.29247 5.90337 6.24909C5.87587 6.2921 5.83685 6.32652 5.79074 6.34843L5.87255 6.34684H5.92037C5.95224 6.34684 5.98465 6.3479 6.01705 6.34897ZM4.58055 6.52428L4.5253 6.47275C4.59171 6.47912 4.64112 6.47275 4.67034 6.44937C4.72877 6.46637 4.79677 6.46797 4.8754 6.45468C4.9588 6.4414 5.01671 6.38562 5.05177 6.29372C5.09242 6.34813 5.1519 6.38545 5.21859 6.39837C4.89027 6.44459 4.64537 6.50675 4.58055 6.52428ZM5.57718 6.35959C5.52061 6.36398 5.46411 6.3693 5.40771 6.37553C5.43876 6.35968 5.46486 6.33561 5.48315 6.30593C5.51029 6.33034 5.54236 6.34864 5.57718 6.35959ZM7.04077 6.85365C7.08221 6.87331 7.11568 6.85365 7.14171 6.81647C7.13978 6.82575 7.13854 6.83516 7.13799 6.84462C7.13293 6.84775 7.1276 6.85042 7.12205 6.85259C7.0932 6.86343 7.06354 6.87196 7.03334 6.87809C6.92941 6.90013 6.82444 6.91697 6.71884 6.92856C6.46702 6.95884 6.16687 6.97903 5.92887 6.98062C5.66464 6.97715 5.40077 6.95977 5.13837 6.92856C5.03278 6.91685 4.92782 6.90001 4.82387 6.87809C4.79743 6.87258 4.77136 6.86548 4.74577 6.85684C4.74794 6.85586 4.75007 6.8548 4.75215 6.85365C4.8823 6.79309 5.74134 6.73572 5.89646 6.72615C6.05105 6.73572 6.91115 6.79309 7.04077 6.85365Z" fill="#C88A02"/>
<path fill-rule="evenodd" clip-rule="evenodd" d="M5.90335 4.96558C5.95069 4.96558 5.9961 4.94678 6.02957 4.9133C6.06305 4.87982 6.08185 4.83442 6.08185 4.78708C6.08185 4.73974 6.06305 4.69434 6.02957 4.66086C5.9961 4.62739 5.95069 4.60858 5.90335 4.60858C5.85601 4.60858 5.81061 4.62739 5.77714 4.66086C5.74366 4.69434 5.72485 4.73974 5.72485 4.78708C5.72485 4.83442 5.74366 4.87982 5.77714 4.9133C5.81061 4.94678 5.85601 4.96558 5.90335 4.96558Z" fill="#005BBF"/>
<path fill-rule="evenodd" clip-rule="evenodd" d="M5.78701 5.84214C5.7905 5.86082 5.79621 5.87901 5.80401 5.89633C5.77853 5.88678 5.75153 5.88192 5.72432 5.88199C5.64251 5.88199 5.57557 5.92236 5.57557 5.97124C5.57557 6.02064 5.64251 6.06049 5.72432 6.06049C5.80666 6.06049 5.87307 6.02064 5.87307 5.97124C5.87307 6.02064 5.94001 6.06049 6.02182 6.06049C6.10416 6.06049 6.17057 6.02064 6.17057 5.97124C6.17057 5.92236 6.10416 5.88199 6.02182 5.88199C6.00211 5.88202 5.98247 5.88452 5.96338 5.88943C5.96796 5.86249 5.9676 5.83495 5.96232 5.80814C5.94638 5.72739 5.89485 5.67002 5.84597 5.67905C5.79816 5.68861 5.7716 5.76139 5.78701 5.84214ZM4.91151 5.9553C4.90373 5.93815 4.89802 5.92014 4.89451 5.90164C4.87857 5.82089 4.90513 5.74758 4.95401 5.73855C5.00182 5.72899 5.05388 5.78636 5.06982 5.86764C5.07513 5.89633 5.07513 5.92449 5.07141 5.94893C5.0905 5.94402 5.11014 5.94152 5.12985 5.94149C5.21166 5.94149 5.2786 5.98186 5.2786 6.03074C5.2786 6.08014 5.21166 6.11999 5.12985 6.11999C5.04751 6.11999 4.9811 6.08014 4.9811 6.03074C4.9811 6.08014 4.91416 6.11999 4.83235 6.11999C4.75001 6.11999 4.6836 6.08014 4.6836 6.03074C4.6836 5.98186 4.75001 5.94149 4.83235 5.94149C4.86157 5.94149 4.88866 5.9468 4.91204 5.95583L4.91151 5.9553ZM6.77513 6.01002C6.76822 6.05889 6.69704 6.08917 6.61576 6.07749C6.53447 6.06633 6.47391 6.01746 6.48082 5.96858C6.48772 5.91971 6.55891 5.88942 6.64019 5.90111C6.66732 5.90449 6.6936 5.91277 6.71776 5.92555C6.71217 5.90743 6.70878 5.8887 6.70766 5.86977C6.70341 5.78796 6.73954 5.71942 6.78947 5.71677C6.83835 5.71411 6.88191 5.77839 6.88616 5.86021C6.88795 5.88766 6.88471 5.9152 6.8766 5.94149C6.89605 5.93941 6.91568 5.93976 6.93504 5.94255C7.01632 5.95371 7.07688 6.00258 7.06997 6.05146C7.06307 6.10033 6.99135 6.13061 6.9106 6.11892C6.82879 6.10777 6.76822 6.05889 6.77513 6.01002ZM7.34197 6.24589C7.41422 6.28468 7.49179 6.28042 7.51516 6.23686L7.51622 6.23474C7.52319 6.24218 7.53198 6.24768 7.54172 6.25067C7.58847 6.26502 7.64638 6.21349 7.67029 6.13433C7.69419 6.05571 7.6756 5.98027 7.62832 5.96592C7.58157 5.95158 7.52366 6.00364 7.49976 6.08227C7.49399 6.10037 7.49042 6.1191 7.48913 6.13805C7.47101 6.1179 7.44942 6.10116 7.42538 6.08864C7.35313 6.04986 7.27557 6.05358 7.25219 6.09714C7.22935 6.14071 7.26919 6.20764 7.34197 6.24589ZM4.42222 6.26396C4.34997 6.30274 4.27241 6.29902 4.24904 6.25546L4.24797 6.2528C4.24103 6.26027 4.23223 6.26576 4.22247 6.26874C4.17572 6.28308 4.11782 6.23155 4.09391 6.15292C4.07001 6.0743 4.0886 5.99886 4.13588 5.98452C4.18263 5.97018 4.24054 6.02171 4.26444 6.10033C4.2702 6.11843 4.27377 6.13716 4.27507 6.15611C4.29317 6.13594 4.31477 6.11921 4.33882 6.10671C4.41107 6.06792 4.48863 6.07218 4.51201 6.11574C4.53485 6.1593 4.49501 6.22518 4.42222 6.26396ZM5.83641 4.29089H5.96072V4.36899H6.04147V4.49277H5.96072V4.74086H6.04147V4.86464H5.7546V4.74086H5.83641V4.49277H5.75407V4.36899H5.83641V4.29089Z" fill="#C88A02"/>
<path d="M5.81348 4.96399H6.05148V5.73749H5.81348V4.96399Z" fill="#C88A02"/>
<path d="M4.85569 5.09365L4.85463 5.15315C4.3271 5.14359 4.02429 5.22062 3.94779 5.37415C3.8681 5.53299 3.88298 5.72584 3.99454 5.9548L3.94088 5.98137C3.82188 5.73646 3.80594 5.52449 3.89466 5.34759C3.98551 5.16537 4.30532 5.08409 4.85569 5.09365Z" fill="white"/>
<path d="M4.95758 5.62063L4.92729 5.67217C4.81201 5.60363 4.75464 5.48623 4.75464 5.32526C4.75464 5.0931 4.87417 4.9571 5.1382 4.86413C5.30714 4.80517 5.53717 4.82907 5.82989 4.93532L5.8097 4.9911C5.52867 4.88963 5.31139 4.86626 5.15839 4.92045C4.91561 5.00545 4.81414 5.12126 4.81414 5.32526C4.81414 5.46657 4.86195 5.56432 4.95758 5.62117V5.62063Z" fill="white"/>
<path d="M4.06938 5.86342L3.95675 5.90326C3.84041 5.57123 3.87388 5.34598 4.0731 5.24876C4.24841 5.16376 4.50341 5.1287 4.84075 5.14251L4.83597 5.26098C4.51722 5.24823 4.27975 5.28064 4.12516 5.35607C3.99447 5.41982 3.97003 5.58186 4.06938 5.86342Z" fill="#C88A02"/>
<path d="M5.38098 5.01445C5.10898 5.01445 4.99689 5.08085 4.93314 5.27635C4.89276 5.4012 4.93207 5.50745 5.0601 5.60679L4.98679 5.70082C4.82157 5.57226 4.76314 5.41448 4.81998 5.23917C4.90126 4.99001 5.06117 4.89545 5.38098 4.89545C5.59082 4.89545 5.75392 4.9507 5.8676 5.06226L5.88514 5.07979V5.65354H5.76614V5.13079C5.67742 5.05376 5.54992 5.01392 5.38098 5.01392V5.01445Z" fill="#C88A02"/>
<path d="M6.93217 5.1531L6.93323 5.2126C7.46077 5.20303 7.76358 5.28007 7.84008 5.4336C7.91977 5.59244 7.90489 5.78528 7.79333 6.01425L7.84698 6.04028C7.96598 5.79591 7.98192 5.58394 7.8932 5.40704C7.80236 5.22482 7.48255 5.14353 6.93217 5.1531Z" fill="white"/>
<path d="M6.74585 5.63338L6.77666 5.68491C6.89141 5.61585 6.94879 5.49898 6.94879 5.33748C6.94879 5.10585 6.82925 4.96985 6.56522 4.87688C6.39629 4.81738 6.16625 4.84182 5.87354 4.94807L5.89372 5.00385C6.17475 4.90185 6.39204 4.87901 6.54557 4.93266C6.78782 5.01819 6.88929 5.13401 6.88929 5.33748C6.88929 5.47932 6.84147 5.57654 6.74585 5.63338Z" fill="white"/>
<path d="M7.75579 5.92344L7.86789 5.96222C7.98476 5.63072 7.95129 5.40547 7.75207 5.30878C7.57676 5.22272 7.32123 5.18766 6.98389 5.20147L6.9892 5.32047C7.30795 5.30772 7.54542 5.34013 7.70001 5.41503C7.8307 5.47878 7.85461 5.64187 7.75579 5.92344Z" fill="#C88A02"/>
<path d="M6.43706 5.02348C6.70906 5.02348 6.82062 5.08989 6.88437 5.28539C6.92528 5.41023 6.88597 5.51648 6.75794 5.61582L6.83072 5.70985C6.99647 5.58129 7.0549 5.42351 6.99753 5.2482C6.91625 4.99904 6.75687 4.90448 6.43706 4.90448C6.22722 4.90448 6.06412 4.95973 5.95044 5.07182L5.93237 5.08882V5.66257H6.05137V5.13982C6.14062 5.06279 6.26812 5.02295 6.43706 5.02295V5.02348Z" fill="#C88A02"/>
<path opacity="0.3" fill-rule="evenodd" clip-rule="evenodd" d="M3.96948 7.04651H7.83698V10.5214C7.83698 10.5214 7.54905 11.6875 5.90323 11.6875C4.25636 11.6875 3.96948 10.4906 3.96948 10.4906V7.04651Z" fill="#E1E5E8"/>
<mask id="mask3_142_27" style="mask-type:luminance" maskUnits="userSpaceOnUse" x="3" y="7" width="5" height="5">
<path fill-rule="evenodd" clip-rule="evenodd" d="M3.96948 7.04651H7.83698V10.5214C7.83698 10.5214 7.54905 11.6875 5.90323 11.6875C4.25636 11.6875 3.96948 10.4906 3.96948 10.4906V7.04651Z" fill="white"/>
</mask>
<g mask="url(#mask3_142_27)">
<path d="M3.96948 9.18848H5.93298V11.509H3.96948V9.18848Z" fill="#FFC034"/>
<path d="M4.20748 9.3075H4.44548V11.509H4.20748V9.3075ZM5.04048 9.3075H5.27848V11.509H5.04048V9.3075ZM4.62398 9.3075H4.86198V11.509H4.62398V9.3075ZM5.45645 9.3075H5.69445V11.509H5.45645V9.3075ZM3.96948 6.987H5.93298V9.248H3.96948V6.987Z" fill="#AD1619"/>
<path d="M5.87354 9.12903H7.83704V11.39H5.87354V9.12903Z" fill="#AD1619"/>
<path d="M5.87354 7.04651H7.95604V9.24801H5.87354V7.04651Z" fill="#F1F9FF"/>
<path fill-rule="evenodd" clip-rule="evenodd" d="M4.80249 7.22498H4.98099V7.71904H5.09999V7.47201H5.27849V7.71851H5.45699V8.02716H5.27849V8.58232H5.45699V8.89098H4.38599V8.58285H4.56449V8.02716H4.38599V7.71904H4.50499V7.47201H4.68349V7.71851H4.80249V7.22498Z" fill="#C88A02"/>
<path d="M6.89506 7.32858L7.01672 7.19843L7.27225 7.43749L7.15059 7.56764L6.89453 7.32858H6.89506Z" fill="#C88A02"/>
<path fill-rule="evenodd" clip-rule="evenodd" d="M7.62861 10.6994V9.39673H6.14111V10.6882L6.14324 10.6988C6.21868 11.0192 6.47474 11.1817 6.88486 11.1817C7.29393 11.1817 7.55052 11.0234 7.62596 10.71L7.62861 10.6994ZM6.88486 11.0032C6.55549 11.0032 6.37646 10.8927 6.31961 10.6675V9.57523H7.45011V10.6776C7.39274 10.8954 7.21371 11.0032 6.88486 11.0032Z" fill="#FFC034"/>
<path fill-rule="evenodd" clip-rule="evenodd" d="M6.94604 9.50568H6.82226V10.0964L6.33351 9.56518L6.24585 9.64486L6.68785 10.1262H6.28729V10.3047H6.69794L6.24638 10.7956L6.33351 10.8763L6.82226 10.3451V11.0351H6.94604V10.4072L7.37794 10.8763L7.4656 10.7956L7.01404 10.3047H7.51766V10.1262H7.0236L7.4656 9.6454L7.37794 9.56465L6.94604 10.0343V9.50568Z" fill="#FFC034"/>
<path fill-rule="evenodd" clip-rule="evenodd" d="M7.16223 11.3916C7.16223 11.3916 5.9021 11.4909 5.9021 10.6781C5.9021 10.6781 5.88988 11.3916 4.57397 11.3916V12.0333H7.16223V11.3916Z" fill="#F1F9FF"/>
<path fill-rule="evenodd" clip-rule="evenodd" d="M5.90279 9.66452C6.14929 9.66452 6.34904 9.45202 6.34904 9.18852C6.34904 8.92609 6.14929 8.71252 5.90279 8.71252C5.65682 8.71252 5.45654 8.92609 5.45654 9.18852C5.45654 9.45149 5.65682 9.66452 5.90279 9.66452Z" fill="#005BBF" stroke="#AD1619" stroke-width="0.87525"/>
</g>
</g>
</svg>
