<svg width="17" height="17" viewBox="0 0 17 17" fill="none" xmlns="http://www.w3.org/2000/svg">
<path fill-rule="evenodd" clip-rule="evenodd" d="M0 2.125H17V14.875H0V2.125Z" fill="#F7FCFF"/>
<path fill-rule="evenodd" clip-rule="evenodd" d="M0 9.91631V10.9788H17V9.91631H0ZM0 11.8649V12.9274H17V11.8649H0ZM0 6.02119V7.08369H17V6.02119H0ZM0 13.8125V14.875H17V13.8125H0ZM0 7.96875V9.03125H17V7.96875H0ZM0 2.125V3.1875H17V2.125H0ZM0 4.07309V5.13559H17V4.07309H0Z" fill="#E31D1C"/>
<path d="M0 2.125H10.625V9.03125H0V2.125Z" fill="#2E42A5"/>
<path fill-rule="evenodd" clip-rule="evenodd" d="M0.914838 3.68633L0.52915 3.95674L0.659307 3.47542L0.31665 3.17049H0.764494L0.914307 2.77789L1.09015 3.17102H1.47159L1.17196 3.47542L1.28778 3.95674L0.914838 3.68633ZM3.03984 3.68633L2.65415 3.95674L2.78431 3.47542L2.44165 3.17049H2.88949L3.03931 2.77789L3.21515 3.17102H3.59659L3.29696 3.47542L3.41278 3.95674L3.03984 3.68633ZM4.77915 3.95674L5.16484 3.6858L5.53778 3.95674L5.42196 3.47542L5.72159 3.17049H5.34015L5.16431 2.77789L5.01449 3.17102H4.56665L4.90931 3.47542L4.77915 3.95674ZM7.28984 3.6858L6.90415 3.95674L7.03431 3.47542L6.69165 3.17049H7.13896L7.28931 2.77789L7.46515 3.17102H7.84659L7.54696 3.47542L7.66278 3.95674L7.28984 3.6858ZM0.52915 6.08227L0.914838 5.81133L1.28778 6.08227L1.17196 5.60096L1.47159 5.29602H1.09015L0.914307 4.90342L0.764494 5.29655H0.31665L0.659307 5.60096L0.52915 6.08227ZM3.03984 5.81133L2.65415 6.08227L2.78431 5.60096L2.44165 5.29602H2.88949L3.03931 4.90342L3.21515 5.29655H3.59659L3.29696 5.60096L3.41278 6.08227L3.03984 5.81133ZM4.77915 6.08227L5.16484 5.81133L5.53778 6.08227L5.42196 5.60096L5.72159 5.29602H5.34015L5.16431 4.90342L5.01449 5.29655H4.56665L4.90931 5.60096L4.77915 6.08227ZM7.28984 5.81133L6.90415 6.08227L7.03431 5.60096L6.69165 5.29602H7.13896L7.28931 4.90342L7.46515 5.29655H7.84659L7.54696 5.60096L7.66278 6.08227L7.28984 5.81133ZM0.52915 8.20727L0.914838 7.93633L1.28778 8.20727L1.17196 7.72596L1.47159 7.42102H1.09015L0.914307 7.02842L0.764494 7.42155H0.31665L0.659307 7.72596L0.52915 8.20727ZM3.03984 7.93633L2.65415 8.20727L2.78431 7.72596L2.44165 7.42102H2.88949L3.03931 7.02842L3.21515 7.42155H3.59659L3.29696 7.72596L3.41278 8.20727L3.03984 7.93633ZM4.77915 8.20727L5.16484 7.93633L5.53778 8.20727L5.42196 7.72596L5.72159 7.42102H5.34015L5.16431 7.02842L5.01449 7.42155H4.56665L4.90931 7.72596L4.77915 8.20727ZM7.28984 7.93633L6.90415 8.20727L7.03431 7.72596L6.69165 7.42102H7.13896L7.28931 7.02842L7.46515 7.42155H7.84659L7.54696 7.72596L7.66278 8.20727L7.28984 7.93633ZM9.02915 3.95727L9.41484 3.68633L9.78778 3.95727L9.67196 3.47596L9.97159 3.17102H9.59015L9.41431 2.77842L9.26449 3.17155H8.81665L9.15931 3.47596L9.02915 3.95727ZM9.41484 5.81133L9.02915 6.08227L9.15931 5.60096L8.81665 5.29602H9.26449L9.41431 4.90342L9.59015 5.29655H9.97159L9.67196 5.60096L9.78778 6.08227L9.41484 5.81133ZM9.02915 8.20727L9.41484 7.93633L9.78778 8.20727L9.67196 7.72596L9.97159 7.42102H9.59015L9.41431 7.02842L9.26449 7.42155H8.81665L9.15931 7.72596L9.02915 8.20727ZM1.97734 4.7483L1.59165 5.01924L1.72181 4.53792L1.37915 4.23299H1.82699L1.97681 3.84039L2.15265 4.23352H2.53409L2.23446 4.53792L2.35028 5.01924L1.97734 4.7483ZM3.71665 5.01924L4.10234 4.7483L4.47528 5.01924L4.35946 4.53792L4.65909 4.23299H4.27765L4.10181 3.84039L3.95199 4.23352H3.50415L3.84681 4.53792L3.71665 5.01924ZM6.22734 4.7483L5.84165 5.01924L5.97181 4.53792L5.62915 4.23299H6.07646L6.22681 3.84039L6.40265 4.23352H6.78409L6.48446 4.53792L6.60028 5.01924L6.22734 4.7483ZM1.59165 7.14424L1.97734 6.8733L2.35028 7.14424L2.23446 6.66292L2.53409 6.35799H2.15265L1.97681 5.96539L1.82699 6.35852H1.37915L1.72181 6.66292L1.59165 7.14424ZM4.10234 6.8733L3.71665 7.14424L3.84681 6.66292L3.50415 6.35799H3.95199L4.10181 5.96539L4.27765 6.35852H4.65909L4.35946 6.66292L4.47528 7.14424L4.10234 6.8733ZM5.84165 7.14424L6.22734 6.8733L6.60028 7.14424L6.48446 6.66292L6.78409 6.35799H6.40265L6.22681 5.96539L6.07646 6.35852H5.62915L5.97181 6.66292L5.84165 7.14424ZM8.35234 4.7483L7.96665 5.01924L8.09681 4.53792L7.75415 4.23299H8.20146L8.35181 3.84039L8.52765 4.23352H8.90909L8.60946 4.53792L8.72528 5.01924L8.35234 4.7483ZM7.96665 7.14424L8.35234 6.8733L8.72528 7.14424L8.60946 6.66292L8.90909 6.35799H8.52765L8.35181 5.96539L8.20146 6.35852H7.75415L8.09681 6.66292L7.96665 7.14424Z" fill="#F7FCFF"/>
</svg>
