<svg width="18" height="19" viewBox="0 0 18 19" fill="none" xmlns="http://www.w3.org/2000/svg">
<path d="M6 18.2992H2C1.45 18.2992 0.979167 18.1034 0.5875 17.7117C0.195833 17.32 0 16.8492 0 16.2992V9.29919C0 8.04919 0.2375 6.87836 0.7125 5.78669C1.1875 4.69503 1.82917 3.74503 2.6375 2.93669C3.44583 2.12836 4.39583 1.48669 5.4875 1.01169C6.57917 0.536694 7.75 0.299194 9 0.299194C10.25 0.299194 11.4208 0.536694 12.5125 1.01169C13.6042 1.48669 14.5542 2.12836 15.3625 2.93669C16.1708 3.74503 16.8125 4.69503 17.2875 5.78669C17.7625 6.87836 18 8.04919 18 9.29919V16.2992C18 16.8492 17.8042 17.32 17.4125 17.7117C17.0208 18.1034 16.55 18.2992 16 18.2992H12V10.2992H16V9.29919C16 7.34919 15.3208 5.69503 13.9625 4.33669C12.6042 2.97836 10.95 2.29919 9 2.29919C7.05 2.29919 5.39583 2.97836 4.0375 4.33669C2.67917 5.69503 2 7.34919 2 9.29919V10.2992H6V18.2992ZM4 12.2992H2V16.2992H4V12.2992ZM14 12.2992V16.2992H16V12.2992H14Z" fill="white"/>
</svg>
